<svg xmlns="http://www.w3.org/2000/svg" viewBox="0 0 118.62 170.27"><defs><style>.cls-1{fill:#19a342;}.cls-2{fill:#1d1d1b;}</style></defs><g id="Layer_2" data-name="Layer 2"><g id="Layer_1-2" data-name="Layer 1"><path class="cls-1" d="M90.71,12.14,83.33,85.29l-.85,8.76c-.79,8.06-12.38,10.79-16.67,3.92h0l-3.57-5.71A12.28,12.28,0,0,0,61,90.55c-7.45-8.31-21.36-1.92-22.91,9.64h0a11.8,11.8,0,0,0,2.47,9l29.58,37.44c4,5.11,11.08,7.38,17.92,5.79h0c7.46-1.74,13-7.68,13.77-14.68L118.56,13.61C119.48,4.92,111-1.75,101.72.41h0C95.76,1.8,91.31,6.54,90.71,12.14Z"/><path class="cls-2" d="M27.92,158.12,35.49,96l1.67-15.43c.78-8.06,12.37-10.78,16.67-3.91h0l3.57,5.71a10.94,10.94,0,0,0,1.25,1.7C66.09,92.37,80,86,81.55,74.41h0a11.82,11.82,0,0,0-2.46-8.94L49.51,28c-4-5.1-11.08-7.38-17.93-5.78h0c-7.45,1.73-13,7.67-13.77,14.68L.07,156.65c-.93,8.7,7.57,15.37,16.83,13.21h0C22.86,168.47,27.32,163.72,27.92,158.12Z"/></g></g></svg>