<svg xmlns="http://www.w3.org/2000/svg" viewBox="0 0 102.26 170.83"><defs><style>.cls-1{fill:#19a342;}</style></defs><g id="Layer_2" data-name="Layer 2"><g id="Layer_1-2" data-name="Layer 1"><path class="cls-1" d="M75.42,12.87,74.19,83.65l-.12,8.47c-.11,7.8-11,11.34-15.68,5.09h0L54.51,92a11.56,11.56,0,0,0-1.34-1.54C45.36,83.1,32.52,90.34,32,101.57h0A11.42,11.42,0,0,0,35,110l31.38,33.57c4.28,4.57,11.23,6.19,17.67,4.11h0c7-2.26,11.88-8.4,12-15.18l6.12-120.4c.2-8.42-8.49-14.14-17.2-11.33h0C79.44,2.53,75.54,7.44,75.42,12.87Z"/><path class="cls-1" d="M26.84,158l2.3-60.24.36-14.94c.11-7.79,11-11.33,15.69-5.09h0l3.88,5.2a12.05,12.05,0,0,0,1.33,1.53c7.81,7.39,20.66.14,21.21-11.08h0A11.36,11.36,0,0,0,68.53,65L37.15,31.4c-4.28-4.58-11.22-6.2-17.66-4.12h0c-7,2.26-11.89,8.41-12,15.19L0,158.78c-.19,8.42,8.5,14.14,17.21,11.33h0C22.82,168.3,26.72,163.39,26.84,158Z"/></g></g></svg>