<svg xmlns="http://www.w3.org/2000/svg" viewBox="0 0 447.77 126.03"><defs><style>.cls-1{fill:#b2b2b2;stroke:#fff;stroke-miterlimit:10;stroke-width:4px;}</style></defs><g id="Layer_2" data-name="Layer 2"><g id="Layer_1-2" data-name="Layer 1"><path class="cls-1" d="M348.86,18.38a14.93,14.93,0,0,0-19.11-8.45L218.35,51.69l-15.48,5.47a14.94,14.94,0,0,0-2,27.28l13.87,7.34,59.92,27.94a14.93,14.93,0,0,0,20.94-10.56l.7-3.42a14.92,14.92,0,0,0-8.62-16.65l-5.85-2.58a14.94,14.94,0,0,1,.91-27.71L340.09,38a14.93,14.93,0,0,0,8.77-19.58Z"/><path class="cls-1" d="M253.24,15.13a14.93,14.93,0,0,0-19.11-8.45L122.74,48.44l-15.48,5.47a14.93,14.93,0,0,0-2,27.28l13.87,7.34L179,116.47A14.94,14.94,0,0,0,200,105.91l.7-3.42a14.93,14.93,0,0,0-8.63-16.65l-5.85-2.58a14.94,14.94,0,0,1,.91-27.71l57.36-20.84a14.93,14.93,0,0,0,8.77-19.58Z"/><path class="cls-1" d="M444.7,21.28a14.92,14.92,0,0,0-19.11-8.44L314.2,54.59l-15.48,5.47a14.93,14.93,0,0,0-2,27.28l13.87,7.35,59.91,27.93a14.94,14.94,0,0,0,20.95-10.55l.7-3.43A14.94,14.94,0,0,0,383.52,92l-5.86-2.58c-12.33-5.42-11.74-23.11.92-27.71l57.35-20.84a14.93,14.93,0,0,0,8.77-19.58Z"/><path class="cls-1" d="M158,11.4A14.94,14.94,0,0,0,138.83,3L27.44,44.71,12,50.18a14.93,14.93,0,0,0-2,27.28L23.82,84.8l59.91,27.94a14.94,14.94,0,0,0,21-10.56l.7-3.42a14.94,14.94,0,0,0-8.62-16.65L90.9,79.53c-12.33-5.42-11.74-23.11.92-27.71L149.18,31A15,15,0,0,0,158,11.4Z"/></g></g></svg>