<svg xmlns="http://www.w3.org/2000/svg" viewBox="0 0 447.77 126.03"><defs><style>.cls-1{fill:#b2b2b2;stroke:#fff;stroke-miterlimit:10;stroke-width:4px;}</style></defs><g id="Layer_2" data-name="Layer 2"><g id="Layer_1-2" data-name="Layer 1"><path class="cls-1" d="M98.92,18.38A14.93,14.93,0,0,1,118,9.93L229.42,51.69l15.48,5.47a14.93,14.93,0,0,1,2,27.28L233,91.78l-59.91,27.94a14.94,14.94,0,0,1-20.95-10.56l-.7-3.42a14.94,14.94,0,0,1,8.62-16.65L166,86.51C178.29,81.09,177.7,63.4,165,58.8L107.69,38a14.93,14.93,0,0,1-8.77-19.58Z"/><path class="cls-1" d="M194.53,15.13a14.94,14.94,0,0,1,19.12-8.45L325,48.44l15.48,5.47a14.93,14.93,0,0,1,2,27.28l-13.87,7.34-59.92,27.94a14.93,14.93,0,0,1-20.94-10.56l-.7-3.42a14.94,14.94,0,0,1,8.62-16.65l5.85-2.58a14.94,14.94,0,0,0-.91-27.71L203.3,34.71a14.94,14.94,0,0,1-8.77-19.58Z"/><path class="cls-1" d="M3.07,21.28a14.93,14.93,0,0,1,19.11-8.44l111.4,41.75,15.47,5.47a14.93,14.93,0,0,1,2,27.28L137.2,94.69,77.28,122.62a14.93,14.93,0,0,1-20.94-10.55l-.7-3.43A14.92,14.92,0,0,1,64.26,92l5.85-2.58A14.94,14.94,0,0,0,69.2,61.7L11.84,40.86A14.93,14.93,0,0,1,3.07,21.28Z"/><path class="cls-1" d="M289.83,11.4A14.93,14.93,0,0,1,308.94,3l111.4,41.76,15.47,5.47a14.93,14.93,0,0,1,2,27.28L424,84.8,364,112.74a14.94,14.94,0,0,1-21-10.56l-.69-3.42A14.92,14.92,0,0,1,351,82.11l5.85-2.58A14.94,14.94,0,0,0,356,51.82L298.6,31a14.93,14.93,0,0,1-8.77-19.58Z"/></g></g></svg>