<svg xmlns="http://www.w3.org/2000/svg" viewBox="0 0 898.72 106.64"><defs><style>.cls-1{fill:#063;}</style></defs><g id="Layer_2" data-name="Layer 2"><g id="Layer_1-2" data-name="Layer 1"><path class="cls-1" d="M801.23,82.46A11.58,11.58,0,0,0,816.05,89l64.88-24.94,9.2-3.25a12.88,12.88,0,0,0,1.73-23.53L883.74,33l-45-21a12.87,12.87,0,0,0-18.06,9.11h0a12.86,12.86,0,0,0,7.43,14.36l3.58,1.58A11.58,11.58,0,0,1,831,58.55l-23,8.73a11.59,11.59,0,0,0-6.8,15.18Z"/><path class="cls-1" d="M213.05,13.64a13.79,13.79,0,0,1,17.66-7.8l77.34,29.73L319,39.44a15.35,15.35,0,0,1,2.07,28.05l-9.68,5.13-53.57,25a15.37,15.37,0,0,1-21.54-10.86h0a15.36,15.36,0,0,1,8.87-17.12l4.26-1.87a13.81,13.81,0,0,0-.85-25.61L221.15,31.73a13.78,13.78,0,0,1-8.1-18.09Z"/><path class="cls-1" d="M651.52,11.88a13.2,13.2,0,0,1,16.89-7.46l74,28.44,10.47,3.7a14.69,14.69,0,0,1,2,26.83l-9.26,4.9L694.34,92.18a14.69,14.69,0,0,1-20.6-10.38h0a14.68,14.68,0,0,1,8.48-16.38l4.07-1.79a13.2,13.2,0,0,0-.81-24.49l-26.21-9.95a13.2,13.2,0,0,1-7.75-17.31Z"/><path class="cls-1" d="M.74,28a10.27,10.27,0,0,1,13.15-5.81L71.48,44.36l8.16,2.88a11.44,11.44,0,0,1,1.54,20.89L74,72,34.08,90.55a11.44,11.44,0,0,1-16-8.08h0a11.42,11.42,0,0,1,6.6-12.75l3.17-1.4a10.28,10.28,0,0,0-.63-19.07L6.77,41.5A10.27,10.27,0,0,1,.74,28Z"/><path class="cls-1" d="M498.39,93.08a13.8,13.8,0,0,0,17.67,7.81l77.41-29.76,11-3.88a15.36,15.36,0,0,0,2.07-28.07l-9.69-5.13-53.62-25a15.37,15.37,0,0,0-21.56,10.86h0a15.38,15.38,0,0,0,8.87,17.14l4.27,1.87a13.82,13.82,0,0,1-.85,25.63L506.5,75a13.81,13.81,0,0,0-8.11,18.11Z"/><path class="cls-1" d="M96.1,93.28a12.72,12.72,0,0,0,16.28,7.2l71.31-27.42,10.1-3.57a14.16,14.16,0,0,0,1.91-25.86l-8.93-4.72-49.39-23a14.16,14.16,0,0,0-19.86,10h0a14.16,14.16,0,0,0,8.17,15.79l3.93,1.73A12.72,12.72,0,0,1,128.84,67L103.57,76.6A12.73,12.73,0,0,0,96.1,93.28Z"/><path class="cls-1" d="M337.69,96.79a15.66,15.66,0,0,0,20,8.85l87.65-33.7,12.42-4.39a17.4,17.4,0,0,0,2.34-31.79l-11-5.81L388.44,1.64A17.4,17.4,0,0,0,364,13.94h0a17.4,17.4,0,0,0,10,19.41l4.83,2.12c12.91,5.68,12.3,24.2-1,29l-31.06,11.8a15.63,15.63,0,0,0-9.19,20.5Z"/></g></g></svg>