<svg xmlns="http://www.w3.org/2000/svg" viewBox="0 0 898.72 106.64"><defs><style>.cls-1{fill:#063;}</style></defs><g id="Layer_2" data-name="Layer 2"><g id="Layer_1-2" data-name="Layer 1"><path class="cls-1" d="M97.49,82.46A11.58,11.58,0,0,1,82.67,89L17.78,64.06,8.59,60.81A12.88,12.88,0,0,1,6.86,37.28L15,33,59.92,12A12.88,12.88,0,0,1,78,21.13h0a12.87,12.87,0,0,1-7.43,14.36L67,37.07a11.58,11.58,0,0,0,.71,21.48l23,8.73a11.59,11.59,0,0,1,6.8,15.18Z"/><path class="cls-1" d="M685.67,13.64A13.79,13.79,0,0,0,668,5.84L590.67,35.57l-11,3.87a15.35,15.35,0,0,0-2.06,28.05l9.68,5.13,53.57,25a15.37,15.37,0,0,0,21.54-10.86h0a15.36,15.36,0,0,0-8.87-17.12l-4.26-1.87a13.81,13.81,0,0,1,.85-25.61l27.41-10.41a13.8,13.8,0,0,0,8.1-18.09Z"/><path class="cls-1" d="M247.2,11.88a13.2,13.2,0,0,0-16.89-7.46l-74,28.44-10.48,3.7a14.69,14.69,0,0,0-2,26.83l9.25,4.9,51.24,23.89A14.69,14.69,0,0,0,225,81.8h0a14.68,14.68,0,0,0-8.48-16.38l-4.07-1.79a13.2,13.2,0,0,1,.8-24.49l26.22-9.95a13.22,13.22,0,0,0,7.75-17.31Z"/><path class="cls-1" d="M898,28a10.28,10.28,0,0,0-13.15-5.81L827.24,44.36l-8.16,2.88a11.44,11.44,0,0,0-1.54,20.89L824.75,72l39.89,18.6a11.44,11.44,0,0,0,16-8.08h0a11.43,11.43,0,0,0-6.6-12.75l-3.17-1.4a10.28,10.28,0,0,1,.62-19.07L892,41.5A10.28,10.28,0,0,0,898,28Z"/><path class="cls-1" d="M400.33,93.08a13.81,13.81,0,0,1-17.67,7.81L305.24,71.13l-11-3.88a15.36,15.36,0,0,1-2.07-28.07l9.69-5.13,53.62-25a15.36,15.36,0,0,1,21.55,10.86h0a15.36,15.36,0,0,1-8.87,17.14l-4.26,1.87a13.82,13.82,0,0,0,.84,25.63L392.22,75a13.81,13.81,0,0,1,8.11,18.11Z"/><path class="cls-1" d="M802.62,93.28a12.72,12.72,0,0,1-16.28,7.2L715,73.06l-10.1-3.57A14.16,14.16,0,0,1,703,43.63L712,38.91l49.39-23a14.16,14.16,0,0,1,19.86,10h0A14.17,14.17,0,0,1,773,41.67L769.1,43.4A12.73,12.73,0,0,0,769.87,67l25.28,9.59a12.73,12.73,0,0,1,7.47,16.68Z"/><path class="cls-1" d="M561,96.79a15.66,15.66,0,0,1-20,8.85l-87.65-33.7-12.42-4.39c-14.3-5-15.75-24.7-2.35-31.79l11-5.81L510.28,1.64a17.41,17.41,0,0,1,24.41,12.3h0a17.41,17.41,0,0,1-10,19.41l-4.83,2.12c-12.91,5.68-12.3,24.2.95,29l31.07,11.8A15.64,15.64,0,0,1,561,96.79Z"/></g></g></svg>