<svg xmlns="http://www.w3.org/2000/svg" x="0px" y="0px" viewBox="9.56 6.287300167083741 28.88 35.42540252685547" enable-background="new 0 0 48 48">
<g>
	
		<path fill="#FFFFFF" stroke="#000000" stroke-width="1.88" stroke-linecap="round" stroke-linejoin="round" stroke-miterlimit="10" d="   M37.5,18.9933c0,3.0405-2.4704,5.5109-5.5108,5.5109H15.9396v-0.0079C12.9308,24.4645,10.5,22.01,10.5,18.9933   c0-3.0404,2.4704-5.5108,5.5109-5.5108c0.6255,0,1.2193,0.1029,1.7815,0.3009c-0.0079-0.1029-0.0079-0.1979-0.0079-0.3009   c0-3.4522,2.8029-6.2552,6.263-6.2552c3.4522,0,6.2552,2.8029,6.2552,6.2552c0,0.0871,0,0.1821-0.0079,0.2692   c0.5305-0.1742,1.1006-0.2692,1.6944-0.2692C35.0296,13.4824,37.5,15.9528,37.5,18.9933z"/>
</g>
<g>
	
		<path fill="#FFFFFF" stroke="#536DFE" stroke-width="1.88" stroke-linecap="round" stroke-linejoin="round" stroke-miterlimit="10" d="   M31.3994,34.7727H16.6006c-1.3861,0-2.5097,1.1236-2.5097,2.5097v0.9806c0,1.3861,1.1236,2.5097,2.5097,2.5097h14.7988   c1.3861,0,2.5097-1.1236,2.5097-2.5097v-0.9806C33.9091,35.8964,32.7855,34.7727,31.3994,34.7727z"/>
	
		<line fill="none" stroke="#536DFE" stroke-width="1.88" stroke-linecap="round" stroke-linejoin="round" stroke-miterlimit="10" x1="18.7557" y1="37.7727" x2="20.2443" y2="37.7727"/>
	
		<line fill="none" stroke="#536DFE" stroke-width="1.88" stroke-linecap="round" stroke-linejoin="round" stroke-miterlimit="10" x1="27.7557" y1="37.7727" x2="29.2443" y2="37.7727"/>
	
		<path fill="#FFFFFF" stroke="#536DFE" stroke-width="1.88" stroke-linecap="round" stroke-linejoin="round" stroke-miterlimit="10" d="   M31.3994,28.595H16.6006c-1.3861,0-2.5097,1.1236-2.5097,2.5097v0.9806c0,1.3861,1.1236,2.5097,2.5097,2.5097h14.7988   c1.3861,0,2.5097-1.1236,2.5097-2.5097v-0.9806C33.9091,29.7186,32.7855,28.595,31.3994,28.595z"/>
	
		<line fill="none" stroke="#536DFE" stroke-width="1.88" stroke-linecap="round" stroke-linejoin="round" stroke-miterlimit="10" x1="18.7557" y1="31.595" x2="20.2443" y2="31.595"/>
	
		<line fill="none" stroke="#536DFE" stroke-width="1.88" stroke-linecap="round" stroke-linejoin="round" stroke-miterlimit="10" x1="27.7557" y1="31.595" x2="29.2443" y2="31.595"/>
	
		<path fill="#FFFFFF" stroke="#536DFE" stroke-width="1.88" stroke-linecap="round" stroke-linejoin="round" stroke-miterlimit="10" d="   M28.7816,20.7319l-3.9436-4.0943c-0.5391-0.5597-1.4399-0.5448-1.9601,0.0325l-3.6898,4.0943   c-0.7768,0.8619-0.1651,2.2366,0.9952,2.2366h1.4291v3.7262c0,0.9091,0.7369,1.646,1.646,1.646h1.4832   c0.9091,0,1.646-0.7369,1.646-1.646V23.001h1.429C28.9981,23.001,29.6012,21.5829,28.7816,20.7319z"/>
</g>
</svg>