<svg xmlns="http://www.w3.org/2000/svg" viewBox="0 0 534.23 183.18"><defs><style>.cls-1{fill:#1d1d1b;}.cls-2{fill:#19a342;}</style></defs><g id="Layer_2" data-name="Layer 2"><g id="Layer_1-2" data-name="Layer 1"><path class="cls-1" d="M208.56,64.92l-1.42,86.91-22-.33.16-9.79q-8.75,10.92-25,10.67a39.23,39.23,0,0,1-20.23-5.68,37.27,37.27,0,0,1-14-15.53q-5-10-4.79-23.13a49.3,49.3,0,0,1,5.54-23A37.47,37.47,0,0,1,141.3,70a39.24,39.24,0,0,1,20.41-5c10.14.15,25.92,0,25.92,0h20.93Zm-28.79,61q5.82-6.3,6-17T180.32,91.7a18.44,18.44,0,0,0-14.26-6.62,18.64,18.64,0,0,0-14.61,6.17q-5.83,6.31-6,17t5.44,17.22a19.51,19.51,0,0,0,28.88.44Z"/><path class="cls-1" d="M300.57,67.12l-1.12,70.62q-.36,23.37-11.25,34.56t-31.3,10.87a68.42,68.42,0,0,1-20.44-3.32,44.71,44.71,0,0,1-16.07-8.94l9.13-17.54a35,35,0,0,0,11.74,7.14,41.65,41.65,0,0,0,14.1,2.75q11.13.17,16.36-5.43t5.41-17.28l.05-2.85a29.92,29.92,0,0,1-10.55,7.1,33,33,0,0,1-13,2.33q-15.57-.24-24.53-9.93t-8.64-28.79l.7-42.62,22.74.35-.63,39.18q-.33,20.78,15.48,21a16.32,16.32,0,0,0,13.15-5.59q5-5.7,5.2-17.13l.59-36.85Z"/><path class="cls-1" d="M374.16,53.52a13.24,13.24,0,0,1-3.79-9.85A13.26,13.26,0,0,1,374.48,34a13.89,13.89,0,0,1,10.32-3.79A14.2,14.2,0,0,1,395,34.11a12.57,12.57,0,0,1,3.8,9.53,14.53,14.53,0,0,1-24.65,9.88Zm-1.44,16,23,.35-1.39,84.61-23-.36Z"/><path class="cls-1" d="M433.44,70.71,453,71l-.3,19.22-19.23-.3-1,63.77-22.42-.35,1.39-86.78q.24-14.52,8.28-22.92t22.4-8.17a38.45,38.45,0,0,1,9.62,1.33,22.46,22.46,0,0,1,7.56,3.51l-6.23,17.74A14.64,14.64,0,0,0,444,54.93q-10.31-.16-10.49,12.15Z"/><path class="cls-1" d="M507.39,137.27a26.37,26.37,0,0,0,9-6.1l11.94,14.39q-11.37,13.56-32.77,13.23a48.37,48.37,0,0,1-23.51-6A39.28,39.28,0,0,1,456.44,137a45.35,45.35,0,0,1-5.21-22.65A46.05,46.05,0,0,1,457.1,92a40,40,0,0,1,15.35-15.39,42.22,42.22,0,0,1,21.71-5.27,41.5,41.5,0,0,1,20.44,5.45,37.85,37.85,0,0,1,14.5,15.06q5.34,9.8,5.12,23.06l-58.54,11.25a18.36,18.36,0,0,0,7.69,9.59,25.4,25.4,0,0,0,13.07,3.36A28.36,28.36,0,0,0,507.39,137.27Zm-27.7-41.56q-5.52,5.91-6,16.49l38.54-7.46a18.41,18.41,0,0,0-18.39-14.81A18.11,18.11,0,0,0,479.69,95.71Z"/><path class="cls-1" d="M313.1,34.19H337l0,22.94,21.92,0-.51,25.1-21.51,0,.48,74H313.25V55.67"/><path class="cls-2" d="M90.71,12.14,83.33,85.29l-.85,8.76c-.79,8.06-12.38,10.79-16.67,3.92h0l-3.57-5.71A12.28,12.28,0,0,0,61,90.55c-7.45-8.31-21.36-1.92-22.91,9.64h0a11.8,11.8,0,0,0,2.47,9l29.58,37.44c4,5.11,11.08,7.38,17.92,5.79h0c7.46-1.74,13-7.68,13.77-14.68L118.56,13.61C119.48,4.92,111-1.75,101.72.41h0C95.76,1.8,91.31,6.54,90.71,12.14Z"/><path class="cls-1" d="M27.92,158.12,35.49,96l1.67-15.43c.78-8.06,12.37-10.78,16.67-3.91h0l3.57,5.71a10.94,10.94,0,0,0,1.25,1.7C66.09,92.37,80,86,81.55,74.41h0a11.82,11.82,0,0,0-2.46-8.94L49.51,28c-4-5.1-11.08-7.38-17.93-5.78h0c-7.45,1.73-13,7.67-13.77,14.68L.07,156.65c-.93,8.7,7.57,15.37,16.83,13.21h0C22.86,168.47,27.32,163.72,27.92,158.12Z"/></g></g></svg>